HIERARCHY
ROOT root
{
	OFFSET 0.000000 0.000000 0.000000
	CHANNELS 6 Xposition Yposition Zposition Zrotation Yrotation Xrotation
	JOINT lhip
	{
		OFFSET 0.058581 -0.082280 -0.017664
		CHANNELS 3 Zrotation Yrotation Xrotation
		JOINT lknee
		{
			OFFSET 0.043451 -0.386469 0.008037
			CHANNELS 3 Zrotation Yrotation Xrotation
			JOINT lankle
			{
				OFFSET -0.014790 -0.426874 -0.037428
				CHANNELS 3 Zrotation Yrotation Xrotation
				JOINT ltoe
				{
					OFFSET 0.041054 -0.060286 0.122042
					CHANNELS 3 Zrotation Yrotation Xrotation
					End Site
					{
						OFFSET 0.000000 0.000000 0.000000
					}
				}
			}
		}
	}
	JOINT rhip
	{
		OFFSET -0.060310 -0.090513 -0.013543
		CHANNELS 3 Zrotation Yrotation Xrotation
		JOINT rknee
		{
			OFFSET -0.043257 -0.383688 -0.004843
			CHANNELS 3 Zrotation Yrotation Xrotation
			JOINT rankle
			{
				OFFSET 0.019056 -0.420046 -0.034562
				CHANNELS 3 Zrotation Yrotation Xrotation
				JOINT rtoe
				{
					OFFSET -0.034840 -0.062106 0.130323
					CHANNELS 3 Zrotation Yrotation Xrotation
					End Site
					{
						OFFSET 0.000000 0.000000 0.000000
					}
				}
			}
		}
	}
	JOINT lowerback
	{
		OFFSET 0.004439 0.124404 -0.038385
		CHANNELS 3 Zrotation Yrotation Xrotation
		JOINT upperback
		{
			OFFSET 0.004488 0.137956 0.026820
			CHANNELS 3 Zrotation Yrotation Xrotation
			JOINT chest
			{
				OFFSET -0.002265 0.056032 0.002855
				CHANNELS 3 Zrotation Yrotation Xrotation
				JOINT lowerneck
				{
					OFFSET -0.013390 0.211636 -0.033468
					CHANNELS 3 Zrotation Yrotation Xrotation
					JOINT upperneck
					{
						OFFSET 0.010113 0.088937 0.050410
						CHANNELS 3 Zrotation Yrotation Xrotation
						End Site
						{
							OFFSET 0.000000 0.000000 0.000000
						}
					}
				}
				JOINT lclavicle
				{
					OFFSET 0.071702 0.114000 -0.018898
					CHANNELS 3 Zrotation Yrotation Xrotation
					JOINT lshoulder
					{
						OFFSET 0.122921 0.045205 -0.019046
						CHANNELS 3 Zrotation Yrotation Xrotation
						JOINT lelbow
						{
							OFFSET 0.255332 -0.015649 -0.022946
							CHANNELS 3 Zrotation Yrotation Xrotation
							JOINT lwrist
							{
								OFFSET 0.265709 0.012698 -0.007375
								CHANNELS 3 Zrotation Yrotation Xrotation
								End Site
								{
									OFFSET 0.000000 0.000000 0.000000
								}
							}
						}
					}
				}
				JOINT rclavicle
				{
					OFFSET -0.082954 0.112472 -0.023707
					CHANNELS 3 Zrotation Yrotation Xrotation
					JOINT rshoulder
					{
						OFFSET -0.113228 0.046853 -0.008472
						CHANNELS 3 Zrotation Yrotation Xrotation
						JOINT relbow
						{
							OFFSET -0.260127 -0.014369 -0.031269
							CHANNELS 3 Zrotation Yrotation Xrotation
							JOINT rwrist
							{
								OFFSET -0.269108 0.006794 -0.006027
								CHANNELS 3 Zrotation Yrotation Xrotation
								End Site
								{
									OFFSET 0.000000 0.000000 0.000000
								}
							}
						}
					}
				}
			}
		}
	}
}
MOTION
Frames: 14
Frame Time: 0.033333
0.098569 0.228009 0.985370 66.898457 -2.572701 85.527661 8.263781 2.433147 2.299450 -3.092876 -1.244286 15.664163 -3.668370 12.219489 -11.055680 0.000000 -0.000000 0.000000 -3.718400 -4.356475 3.007563 -0.659184 3.964379 11.611584 0.174866 -7.305851 -14.272241 0.000000 -0.000000 0.000000 0.677103 2.091968 7.340680 -0.870576 -1.689601 5.147394 -0.661886 1.103962 -0.989108 3.980075 3.275771 -13.466954 4.693062 -1.068715 9.175022 -26.043433 -13.956093 -1.480184 -29.729759 -19.607698 -3.549766 12.953105 -19.209342 -38.519654 4.844127 -7.012617 -31.784077 24.864148 15.698764 5.647344 33.450615 15.868588 10.333964 -8.912904 30.934011 -6.195870 11.760511 7.650959 -7.901922 
0.096692 0.222605 0.985829 67.237539 -2.801880 85.346459 8.369077 2.348882 2.568719 -3.051181 -1.589960 15.280983 -4.159152 12.301650 -10.481471 0.000000 -0.000000 0.000000 -3.422711 -3.852739 2.928122 -0.639127 4.165571 12.268405 0.861785 -8.200785 -14.607287 0.000000 -0.000000 0.000000 0.288086 2.391763 7.138370 -0.786581 -1.707271 5.037364 -0.412355 1.308031 -1.182901 3.924830 4.031289 -13.872502 4.324782 -0.956212 10.062684 -24.132467 -16.497987 -2.183937 -26.766935 -21.269845 -4.609442 13.325879 -19.604286 -41.722874 6.182284 -7.303568 -33.633138 23.052690 18.479546 4.757216 31.179031 19.171841 9.160257 -10.708626 32.214383 -10.710115 11.383812 8.262836 -11.962909 
0.095620 0.217329 0.986336 67.809454 -3.110607 85.002454 8.348211 2.554186 2.974836 -2.889033 -2.102465 14.935992 -4.614439 12.068613 -9.820498 0.000000 -0.000000 0.000000 -3.344667 -3.951376 3.010074 -0.689862 4.027861 12.881942 0.987085 -8.466999 -14.832535 0.000000 -0.000000 0.000000 -0.020547 2.591944 7.237197 -0.867795 -1.742994 4.716439 -0.313739 1.480139 -1.477798 4.032661 4.678234 -14.086693 4.369975 -0.925346 10.889615 -22.227232 -18.943239 -3.137345 -23.472824 -23.114071 -6.119648 13.662519 -19.800876 -44.737109 7.897789 -7.235217 -34.859800 21.491160 21.134345 3.598816 28.398382 22.279366 7.170821 -12.166145 32.893233 -16.111270 10.030702 9.711098 -16.688822 
0.095032 0.210432 0.987244 68.807042 -3.403710 84.595715 8.499553 2.811799 3.573200 -2.655874 -2.417249 14.063877 -5.428270 11.570883 -9.181631 0.000000 -0.000000 0.000000 -3.137976 -4.100745 3.388073 -0.845107 3.632733 13.392952 0.877034 -8.705063 -15.161498 0.000000 -0.000000 0.000000 -0.261551 2.811340 7.278438 -1.023497 -1.804417 4.505985 -0.245534 1.823558 -2.000738 4.389246 5.030891 -13.962534 4.355615 -1.374102 11.139540 -19.442280 -21.893717 -4.553878 -19.658187 -24.955547 -7.740747 14.172142 -20.712638 -47.319422 6.822586 -8.761893 -36.786008 18.549869 24.388573 2.103670 25.343681 25.362336 4.346282 -15.226360 33.228567 -24.214723 9.062865 11.245405 -23.886596 
0.094445 0.206364 0.987770 69.576730 -3.638718 84.407555 8.567410 2.876229 3.677394 -2.704148 -2.824463 13.813497 -5.705732 11.305211 -8.737394 0.000000 -0.000000 0.000000 -3.127542 -4.388723 3.548415 -0.846385 3.565138 13.647036 0.927187 -8.856972 -15.256872 0.000000 -0.000000 0.000000 -0.376284 2.953519 7.394352 -1.176842 -1.936512 4.200639 -0.300617 1.913254 -2.199072 4.595056 4.973384 -14.065709 4.505426 -1.802159 11.395361 -17.795294 -23.419613 -5.443503 -16.978779 -25.968124 -8.926165 14.428550 -21.729241 -48.935485 7.309561 -9.137746 -38.165450 16.691706 26.048029 1.028736 23.092820 27.232938 2.339193 -16.316018 33.208932 -28.912930 7.268419 11.835166 -28.008824 
0.094962 0.201917 0.987898 70.979250 -3.959548 83.993050 8.566166 2.770685 3.650513 -2.737065 -3.208637 13.944171 -6.335301 10.933845 -8.395609 0.000000 -0.000000 0.000000 -3.189154 -4.235319 4.355069 -0.825849 3.145024 13.538777 0.744178 -9.288101 -15.390475 0.000000 -0.000000 0.000000 -0.332406 2.775297 7.417102 -1.505703 -2.020812 4.158019 -0.391469 1.955584 -2.487991 4.677714 4.712481 -13.659939 4.655745 -1.923750 11.425470 -15.407249 -25.239614 -6.580553 -14.549514 -26.888868 -9.863309 16.320094 -23.462607 -51.303421 7.010000 -9.146468 -38.925381 13.610524 28.079953 -0.508013 19.945446 29.152398 -0.546747 -17.950163 33.054163 -34.147740 6.513476 12.189245 -32.650587 
0.095200 0.197611 0.988174 72.450567 -4.185232 83.540947 8.707210 2.607237 3.095610 -2.986359 -3.894359 15.261645 -6.956528 10.361612 -8.383303 0.000000 -0.000000 0.000000 -3.203190 -4.460667 5.220345 -0.851540 3.258999 13.430150 0.751953 -9.584350 -15.610362 0.000000 -0.000000 0.000000 -0.144333 2.744569 7.795621 -1.730018 -2.311173 3.785775 -0.524255 1.853400 -2.597377 4.559846 4.249438 -12.994751 4.524129 -2.100908 12.133850 -13.070714 -26.413899 -7.743923 -12.012035 -27.621093 -10.891123 18.138000 -25.954905 -52.965758 6.772540 -10.332529 -40.659903 10.504996 29.589893 -2.161152 16.638840 30.965979 -3.669187 -19.514764 32.770287 -38.863774 5.710491 12.507414 -35.677359 
0.095973 0.193506 0.988401 73.633591 -4.397280 83.067933 8.873072 2.552387 2.543315 -3.451123 -4.725374 16.717590 -7.316224 10.185789 -8.097415 0.000000 -0.000000 0.000000 -3.254357 -4.776132 6.109687 -0.856349 3.901192 13.317458 0.635117 -9.942443 -15.775446 0.000000 -0.000000 0.000000 0.208342 2.619563 7.727769 -1.980255 -2.474550 3.900470 -0.794050 1.975201 -2.515355 4.416666 3.722326 -11.328700 4.354341 -1.880375 12.470849 -11.060066 -27.072795 -8.788073 -9.383795 -28.108160 -11.726838 20.451877 -29.382728 -54.712664 7.439161 -10.142742 -42.943392 7.485959 30.848630 -3.861386 12.569357 32.586354 -7.141466 -20.351000 32.157267 -42.839299 3.895883 11.672023 -37.792548 
0.096620 0.189894 0.989117 74.867676 -4.725474 82.605280 8.849085 2.267301 1.757549 -3.940892 -5.385509 18.350823 -7.804199 9.963446 -7.668020 0.000000 -0.000000 0.000000 -3.424062 -5.095911 7.210707 -0.908940 3.940982 12.559842 0.543403 -10.377241 -15.615493 0.000000 -0.000000 0.000000 0.435579 2.751409 8.392244 -2.219943 -2.635111 3.277689 -0.943497 1.800925 -2.562275 4.369647 3.458380 -8.852777 4.056674 -1.541669 13.161889 -8.786608 -27.273199 -10.087136 -7.618543 -28.249309 -11.915608 23.066455 -32.975574 -56.047074 8.073907 -9.689606 -44.858120 4.308548 31.273550 -5.803530 9.311717 33.913186 -9.978369 -21.758777 32.327079 -46.854114 1.415305 10.110721 -40.340822 
0.096901 0.185412 0.990526 76.015463 -5.224977 81.968758 8.743948 1.969141 0.659985 -4.748533 -6.258560 20.997278 -8.436997 9.708893 -6.738235 0.000000 -0.000000 0.000000 -3.674877 -5.694643 8.535490 -1.051883 3.891299 11.562237 0.228357 -11.027493 -15.414757 0.000000 -0.000000 0.000000 0.495465 3.212333 7.918054 -2.465005 -2.709860 4.546574 -1.080287 1.715434 -2.159004 3.808329 2.927168 -5.117566 4.512294 -0.651133 12.663040 -6.563712 -27.475123 -10.851267 -4.465673 -27.816767 -12.496391 29.286226 -38.555524 -61.808431 10.405067 -7.369660 -48.643043 0.935079 31.647432 -7.704032 5.302262 34.367483 -13.399391 -27.124222 34.817881 -55.438856 -2.564959 8.099191 -45.012978 
0.096847 0.182327 0.991595 76.984501 -5.533877 82.148349 8.670614 1.834390 -1.301666 -5.405953 -7.038415 23.622601 -9.372754 9.257814 -6.106593 0.000000 -0.000000 0.000000 -3.610596 -6.060811 8.636395 -1.448294 3.529967 11.153898 1.189283 -11.222159 -15.881225 0.000000 -0.000000 0.000000 0.460864 3.391050 7.557948 -2.885414 -2.606738 6.260116 -0.948738 1.813367 -4.272607 1.895057 -1.082365 -1.820511 6.494884 2.919089 13.865736 -6.283592 -26.430220 -10.955595 -2.279312 -28.211059 -11.321789 37.518387 -43.548866 -69.959216 11.393422 -4.109332 -54.193029 0.086170 31.503051 -7.290897 2.173590 33.697414 -15.542906 -34.834205 38.540297 -65.774994 -7.136445 9.076142 -47.043095 
0.096962 0.179702 0.992488 77.621471 -6.001475 82.094679 8.582079 1.076545 -2.632743 -6.213543 -6.592573 25.675851 -9.424037 8.700088 -4.996224 0.000000 -0.000000 0.000000 -4.051727 -6.593155 8.859130 -1.558001 3.149463 10.945646 1.130230 -10.862216 -15.930755 0.000000 -0.000000 0.000000 0.103208 4.073925 7.693808 -2.870571 -2.673963 6.704873 -1.163333 2.166969 -4.140267 1.710412 -1.790123 -0.238100 6.884324 2.483074 13.967418 -5.027161 -25.375191 -11.955652 -1.244420 -28.664216 -11.377530 49.204550 -48.277290 -80.015374 11.386565 -3.738804 -58.589523 -0.713208 30.568442 -7.998805 0.989349 33.141265 -16.801435 -47.877933 41.526935 -75.359927 -5.693891 12.238765 -46.973688 
0.097211 0.177254 0.993290 78.080645 -6.221095 82.065996 8.695538 0.479058 -3.887025 -6.823590 -5.852756 27.401836 -9.846813 8.042285 -4.406072 0.000000 -0.000000 0.000000 -4.172386 -6.676104 9.049908 -1.616910 2.560995 10.708972 1.095705 -10.564504 -15.964077 0.000000 -0.000000 0.000000 -0.193893 4.502797 8.473853 -2.707046 -2.617743 6.537016 -1.185855 2.378911 -3.992258 1.652982 -2.196517 -0.185566 6.771207 2.380458 14.225541 -3.920725 -23.818935 -12.405513 -1.276870 -28.600218 -11.542428 65.735776 -50.694751 -90.028051 10.576345 -5.543976 -58.794927 -1.663202 29.385625 -9.190249 0.790370 33.322332 -17.933340 -62.036312 42.707449 -83.718143 -1.584181 15.553988 -44.846237 
0.098063 0.175833 0.993821 78.570027 -6.314451 82.231594 8.677447 -0.111898 -4.983290 -6.734761 -4.631957 28.106075 -8.851634 7.406460 -5.266009 0.000000 -0.000000 0.000000 -4.259862 -6.552887 9.078924 -1.634994 1.395448 10.475290 1.185123 -9.840806 -16.047852 0.000000 -0.000000 0.000000 -0.387228 4.780252 8.751562 -2.495403 -2.428283 6.609343 -1.188063 2.299617 -4.033353 1.917608 -2.427534 -0.153019 5.806247 1.887114 14.909820 -3.537991 -22.457051 -13.001147 -1.273452 -28.889589 -12.613083 80.046146 -50.325110 -96.987858 7.168918 -11.267764 -56.231845 -2.114376 28.443650 -10.012084 0.400098 33.753316 -19.243388 -72.594997 42.233500 -89.016143 3.293128 20.283635 -44.355620 
